# Blender v2.78 (sub 0) OBJ File: 'Pine.blend'
# www.blender.org
mtllib Mesh_ConiferForestPack_Tree_Tree1.mtl
o Plane.010_Plane.014
v 0.895947 16.612658 -2.249653
v 0.154324 20.857765 -2.256151
v 0.910855 16.621859 2.059718
v 0.169231 20.866970 2.053220
v 1.260283 13.447639 -2.471676
v 0.442126 18.130829 -2.478845
v 1.276730 13.457789 2.282411
v 0.458571 18.140984 2.275242
v 1.376321 11.526392 -2.625331
v 0.505197 16.512768 -2.632963
v 1.393832 11.537200 2.436530
v 0.522707 16.523579 2.428896
v -0.982926 16.612659 2.053218
v -0.241303 20.857767 2.059716
v -0.997835 16.621859 -2.256152
v -0.256210 20.866968 -2.249654
v -1.347262 13.447638 2.275241
v -0.529105 18.130831 2.282410
v -1.363709 13.457788 -2.478846
v -0.545551 18.140984 -2.471677
v -1.463300 11.526393 2.428896
v -0.592177 16.512770 2.436528
v -1.480811 11.537201 -2.632964
v -0.609687 16.523579 -2.625331
v -2.194925 16.612658 -1.037654
v -2.201423 20.857765 -0.296031
v 2.114445 16.621861 -1.052562
v 2.107947 20.866968 -0.310938
v -2.416948 13.447638 -1.401990
v -2.424117 18.130831 -0.583833
v 2.337139 13.457788 -1.418436
v 2.329970 18.140984 -0.600278
v -2.570603 11.526392 -1.518027
v -2.578236 16.512768 -0.646904
v 2.491257 11.537201 -1.535539
v 2.483624 16.523579 -0.664414
v 2.107946 16.612658 0.841219
v 2.114444 20.857765 0.099596
v -2.201425 16.621857 0.856128
v -2.194927 20.866968 0.114504
v 2.329969 13.447638 1.205555
v 2.337138 18.130831 0.387398
v -2.424118 13.457789 1.222002
v -2.416949 18.140984 0.403844
v 2.483623 11.526394 1.321592
v 2.491256 16.512768 0.450469
v -2.578236 11.537200 1.339105
v -2.570603 16.523577 0.467980
v 2.093703 20.657703 1.281210
v 1.024708 22.064812 -0.373505
v 0.063960 20.667267 2.600616
v -1.005035 22.074371 0.945901
v -2.093703 20.657703 -1.281208
v -1.024708 22.064810 0.373505
v -0.063960 20.667263 -2.600614
v 1.005035 22.074373 -0.945901
v 1.625312 20.657701 -1.839415
v -0.189892 22.064812 -1.073998
v 2.572212 20.667265 0.388604
v 0.757008 22.074373 1.154020
v -1.625312 20.657705 1.839416
v 0.189892 22.064810 1.073998
v -2.572212 20.667265 -0.388603
v -0.757008 22.074373 -1.154021
v 0.766785 20.293140 2.331766
v 1.022873 21.700247 0.378500
v -1.634437 20.302702 2.023834
v -1.378348 21.709806 0.070568
v -0.766785 20.293137 -2.331765
v -1.022873 21.700247 -0.378499
v 1.634437 20.302698 -2.023834
v 1.378349 21.709808 -0.070568
v 2.429492 20.293139 -0.350229
v 0.550369 21.700247 -0.941608
v 1.709271 20.302702 1.961041
v -0.169851 21.709806 1.369662
v -2.429492 20.293139 0.350229
v -0.550369 21.700247 0.941608
v -1.709271 20.302700 -1.961041
v 0.169852 21.709808 -1.369662
v 3.837094 16.707886 -1.410845
v 0.571027 19.051477 -1.724448
v 3.463037 16.723812 2.603853
v 0.196969 19.067404 2.290248
v -3.837089 16.707880 1.410847
v -0.571027 19.051479 1.724447
v -3.463031 16.723801 -2.603849
v -0.196970 19.067400 -2.290249
v -0.723107 16.707880 -4.023787
v -1.599092 19.051476 -0.861799
v 3.165642 16.723808 -2.958267
v 2.289657 19.067406 0.203720
v 0.723110 16.707886 4.023790
v 1.599091 19.051481 0.861799
v -3.165640 16.723806 2.958270
v -2.289658 19.067400 -0.203721
v 3.838140 16.100691 1.407998
v 1.551404 18.444283 -0.944954
v 0.954569 16.116615 4.226281
v -1.332166 18.460207 1.873330
v -3.838136 16.100683 -1.407993
v -1.551404 18.444281 0.944954
v -0.954566 16.116608 -4.226277
v 1.332166 18.460205 -1.873330
v 2.053092 16.100687 -3.535331
v -0.661199 18.444281 -1.691924
v 4.327834 16.116613 -0.206179
v 1.613542 18.460207 1.637228
v -2.053089 16.100687 3.535334
v 0.661199 18.444283 1.691924
v -4.327830 16.116608 0.206182
v -1.613542 18.460203 -1.637228
v 2.129080 19.057436 -3.003721
v -0.455340 21.168005 -1.571269
v 3.898354 19.071779 0.167259
v 1.313934 21.182346 1.599710
v -2.129075 19.057430 3.003721
v 0.455340 21.168005 1.571269
v -3.898349 19.071768 -0.167258
v -1.313935 21.182346 -1.599710
v -2.588376 19.057428 -2.618322
v -1.626467 21.168003 0.175574
v 0.841660 19.071775 -3.810082
v 1.803568 21.182348 -1.016186
v 2.588380 19.057438 2.618322
v 1.626466 21.168007 -0.175575
v -0.841657 19.071774 3.810083
v -1.803570 21.182343 1.016186
v 3.567084 18.510614 -0.911722
v 0.669867 20.621183 -1.492481
v 2.863444 18.524954 2.650627
v -0.033773 20.635523 2.069868
v -3.567079 18.510605 0.911723
v -0.669867 20.621180 1.492481
v -2.863439 18.524946 -2.650625
v 0.033772 20.635521 -2.069868
v -0.278453 18.510609 -3.671208
v -1.353485 20.621180 -0.918857
v 3.107590 18.524952 -2.359663
v 2.032557 20.635525 0.392688
v 0.278456 18.510612 3.671209
v 1.353485 20.621183 0.918857
v -3.107587 18.524948 2.359663
v -2.032557 20.635521 -0.392688
v 3.277618 12.236538 -4.060973
v -0.505184 15.228135 -2.263105
v 5.500101 12.256867 0.581411
v 1.717298 15.248464 2.379279
v -3.277613 12.236534 4.060974
v 0.505184 15.228134 2.263105
v -5.500096 12.256859 -0.581410
v -1.717299 15.248462 -2.379279
v -3.430125 12.236533 -3.933002
v -2.316448 15.228133 0.104525
v 1.527660 12.256865 -5.315578
v 2.641337 15.248463 -1.278052
v 3.430129 12.236539 3.933002
v 2.316447 15.228136 -0.104525
v -1.527658 12.256863 5.315579
v -2.641338 15.248461 1.278051
v 5.126894 11.461452 -0.974293
v 1.079648 14.453049 -2.052125
v 3.816396 11.481779 4.003031
v -0.230850 14.473375 2.925199
v -5.126890 11.461447 0.974295
v -1.079647 14.453048 2.052124
v -3.816393 11.481774 -4.003029
v 0.230849 14.473374 -2.925199
v -0.069216 11.461450 -5.218187
v -1.833469 14.453046 -1.419593
v 4.604926 11.481778 -3.063297
v 2.840672 14.473376 0.735297
v 0.069218 11.461451 5.218189
v 1.833469 14.453050 1.419593
v -4.604923 11.481775 3.063297
v -2.840672 14.473373 -0.735298
v 3.349463 17.708548 -1.596707
v 0.371497 19.835642 -1.606324
v 3.347971 17.723001 2.062895
v 0.370004 19.850096 2.053278
v -3.349460 17.708546 1.596709
v -0.371497 19.835640 1.606323
v -3.347967 17.722996 -2.062892
v -0.370005 19.850092 -2.053278
v -0.990822 17.708546 -3.575841
v -1.517410 19.835640 -0.644789
v 2.612923 17.723000 -2.938888
v 2.086334 19.850096 -0.007836
v 0.990824 17.708549 3.575843
v 1.517410 19.835642 0.644788
v -2.612921 17.723000 2.938889
v -2.086335 19.850092 0.007835
v 3.586717 17.157446 0.950707
v 1.322850 19.284538 -0.984049
v 1.216978 17.171898 3.739439
v -1.046889 19.298992 1.804682
v -3.586714 17.157440 -0.950704
v -1.322850 19.284536 0.984050
v -1.216975 17.171892 -3.739436
v 1.046888 19.298988 -1.804682
v 1.559090 17.157442 -3.367136
v -0.739389 19.284536 -1.473631
v 3.893954 17.171898 -0.549141
v 1.595474 19.298990 1.344363
v -1.559088 17.157444 3.367138
v 0.739389 19.284538 1.473631
v -3.893951 17.171894 0.549143
v -1.595475 19.298990 -1.344364
v 4.953249 14.693399 0.288066
v 1.470518 17.537651 -1.642507
v 2.592877 14.712727 4.574623
v -0.889853 17.556980 2.644049
v -4.953245 14.693395 -0.288062
v -1.470518 17.537655 1.642507
v -2.592875 14.712720 -4.574618
v 0.889853 17.556978 -2.644051
v 1.143810 14.693395 -4.827973
v -1.362201 17.537653 -1.733396
v 4.955370 14.712724 -1.759110
v 2.449359 17.556982 1.335467
v -1.143809 14.693400 4.827977
v 1.362201 17.537653 1.733396
v -4.955369 14.712723 1.759111
v -2.449360 17.556978 -1.335469
v 3.589396 13.956490 3.425477
v 2.184048 16.800741 -0.300313
v -0.984289 13.975815 5.165399
v -2.389636 16.820068 1.439608
v -3.589395 13.956483 -3.425473
v -2.184048 16.800741 0.300314
v 0.984290 13.975809 -5.165395
v 2.389637 16.820066 -1.439609
v 3.996727 13.956486 -2.940036
v 0.083505 16.800739 -2.203016
v 4.916004 13.975814 1.866298
v 1.002782 16.820068 2.603317
v -3.996726 13.956487 2.940038
v -0.083505 16.800743 2.203016
v -4.916003 13.975811 -1.866296
v -1.002782 16.820066 -2.603318
v 1.654546 21.626049 0.427063
v 0.606231 22.605606 -0.457121
v 0.571622 21.632704 1.718383
v -0.476692 22.612261 0.834199
v -1.654545 21.626047 -0.427062
v -0.606231 22.605604 0.457121
v -0.571622 21.632704 -1.718382
v 0.476692 22.612261 -0.834200
v 0.707883 21.626049 -1.555251
v -0.344905 22.605606 -0.676399
v 1.791538 21.632704 -0.264544
v 0.738749 22.612261 0.614307
v -0.707883 21.626047 1.555251
v 0.344905 22.605604 0.676399
v -1.791538 21.632704 0.264544
v -0.738749 22.612261 -0.614307
v 0.984845 21.372255 1.396418
v 0.757989 22.351814 0.043909
v -0.676442 21.378914 1.679886
v -0.903298 22.358469 0.327377
v -0.984846 21.372257 -1.396417
v -0.757989 22.351814 -0.043909
v 0.676442 21.378910 -1.679886
v 0.903298 22.358469 -0.327377
v 1.546220 21.372257 -0.727398
v 0.174865 22.351814 -0.738849
v 1.536902 21.378912 0.957874
v 0.165548 22.358469 0.946424
v -1.546220 21.372255 0.727398
v -0.174866 22.351812 0.738849
v -1.536902 21.378912 -0.957874
v -0.165548 22.358471 -0.946424
v 0.000000 -0.160259 -0.552372
v -0.478368 -0.160258 -0.276186
v -0.478368 -0.160258 0.276186
v 0.000000 -0.160258 0.552372
v 0.478368 -0.160258 0.276186
v 0.478368 -0.160258 -0.276186
v 0.000000 11.121023 -0.425654
v -0.368627 11.121022 -0.212827
v -0.368627 11.121022 0.212827
v 0.000000 11.121022 0.425654
v 0.368627 11.121022 0.212827
v 0.368627 11.121022 -0.212827
v 0.000000 22.254766 -0.172265
v -0.149185 22.254766 -0.086132
v -0.149185 22.254766 0.086132
v 0.000000 22.254766 0.172265
v 0.149186 22.254766 0.086132
v 0.149186 22.254766 -0.086132
v -1.055686 23.746487 -0.124044
v -1.098349 21.730991 0.320702
v 1.006394 23.685778 -0.201354
v 0.963731 21.670282 0.243392
v -0.075814 23.985563 0.765964
v 0.041059 22.004761 1.335705
v -0.133014 23.412006 -1.216358
v -0.016142 21.431206 -0.646616
v -0.888051 23.555305 1.013724
v -0.661366 21.578932 0.461989
v 0.569411 24.101122 -0.342641
v 0.796096 22.124750 -0.894376
v 0.816012 23.245214 0.899249
v 0.517413 21.215948 0.665251
v -0.609368 23.621597 -0.545903
v -0.907967 21.592329 -0.779901
v 0.641973 5.480382 0.125172
v 0.641973 5.480382 -0.345674
v -0.173556 5.480382 0.125172
v 0.234209 5.480382 0.360595
v 0.234209 5.480382 -0.581097
v -0.173556 5.480382 -0.345674
v 0.393861 8.300702 -0.224125
v 0.005666 8.300702 0.448250
v -0.382530 8.300702 -0.224125
v 0.393861 8.300702 0.224125
v -0.382530 8.300702 0.224125
v 0.005666 8.300702 -0.448250
v 0.404156 2.660062 0.321852
v -0.481976 2.660062 0.321852
v -0.038910 2.660062 -0.445561
v 0.404156 2.660062 -0.189756
v -0.038910 2.660062 0.577657
v -0.481976 2.660062 -0.189756
v 0.404156 2.660062 0.321852
v -0.481976 2.660062 0.321852
v -0.038910 2.660062 -0.445561
v 0.404156 2.660062 -0.189756
v -0.038910 2.660062 0.577657
v -0.481976 2.660062 -0.189756
vt 0.0001 0.0001
vt 0.9999 0.0001
vt 0.9999 0.9999
vt 0.0001 0.9999
vt 0.0001 0.0001
vt 0.9999 0.0001
vt 0.9999 0.9999
vt 0.0001 0.9999
vt 0.0001 0.0001
vt 0.9999 0.0001
vt 0.9999 0.9999
vt 0.0001 0.9999
vt 0.0001 0.0001
vt 0.9999 0.0001
vt 0.9999 0.9999
vt 0.0001 0.9999
vt 0.0001 0.0001
vt 0.9999 0.0001
vt 0.9999 0.9999
vt 0.0001 0.9999
vt 0.0001 0.0001
vt 0.9999 0.0001
vt 0.9999 0.9999
vt 0.0001 0.9999
vt 0.0001 0.0001
vt 0.9999 0.0001
vt 0.9999 0.9999
vt 0.0001 0.9999
vt 0.0001 0.0001
vt 0.9999 0.0001
vt 0.9999 0.9999
vt 0.0001 0.9999
vt 0.0001 0.0001
vt 0.9999 0.0001
vt 0.9999 0.9999
vt 0.0001 0.9999
vt 0.0001 0.0001
vt 0.9999 0.0001
vt 0.9999 0.9999
vt 0.0001 0.9999
vt 0.0001 0.0001
vt 0.9999 0.0001
vt 0.9999 0.9999
vt 0.0001 0.9999
vt 0.0001 0.0001
vt 0.9999 0.0001
vt 0.9999 0.9999
vt 0.0001 0.9999
vt 0.0001 0.0001
vt 0.9999 0.0001
vt 0.9999 0.9999
vt 0.0001 0.9999
vt 0.0001 0.0001
vt 0.9999 0.0001
vt 0.9999 0.9999
vt 0.0001 0.9999
vt 0.0001 0.0001
vt 0.9999 0.0001
vt 0.9999 0.9999
vt 0.0001 0.9999
vt 0.0001 0.0001
vt 0.9999 0.0001
vt 0.9999 0.9999
vt 0.0001 0.9999
vt 0.0001 0.0001
vt 0.9999 0.0001
vt 0.9999 0.9999
vt 0.0001 0.9999
vt 0.0001 0.0001
vt 0.9999 0.0001
vt 0.9999 0.9999
vt 0.0001 0.9999
vt 0.0001 0.0001
vt 0.9999 0.0001
vt 0.9999 0.9999
vt 0.0001 0.9999
vt 0.0001 0.0001
vt 0.9999 0.0001
vt 0.9999 0.9999
vt 0.0001 0.9999
vt 0.0001 0.0001
vt 0.9999 0.0001
vt 0.9999 0.9999
vt 0.0001 0.9999
vt 0.0001 0.0001
vt 0.9999 0.0001
vt 0.9999 0.9999
vt 0.0001 0.9999
vt 0.0001 0.0001
vt 0.9999 0.0001
vt 0.9999 0.9999
vt 0.0001 0.9999
vt 0.0001 0.0001
vt 0.9999 0.0001
vt 0.9999 0.9999
vt 0.0001 0.9999
vt 0.0001 0.0001
vt 0.9999 0.0001
vt 0.9999 0.9999
vt 0.0001 0.9999
vt 0.0001 0.0001
vt 0.9999 0.0001
vt 0.9999 0.9999
vt 0.0001 0.9999
vt 0.0001 0.0001
vt 0.9999 0.0001
vt 0.9999 0.9999
vt 0.0001 0.9999
vt 0.0001 0.0001
vt 0.9999 0.0001
vt 0.9999 0.9999
vt 0.0001 0.9999
vt 0.0001 0.0001
vt 0.9999 0.0001
vt 0.9999 0.9999
vt 0.0001 0.9999
vt 0.0001 0.0001
vt 0.9999 0.0001
vt 0.9999 0.9999
vt 0.0001 0.9999
vt 0.0001 0.0001
vt 0.9999 0.0001
vt 0.9999 0.9999
vt 0.0001 0.9999
vt 0.0001 0.0001
vt 0.9999 0.0001
vt 0.9999 0.9999
vt 0.0001 0.9999
vt 0.0001 0.0001
vt 0.9999 0.0001
vt 0.9999 0.9999
vt 0.0001 0.9999
vt 0.0001 0.0001
vt 0.9999 0.0001
vt 0.9999 0.9999
vt 0.0001 0.9999
vt 0.0001 0.0001
vt 0.9999 0.0001
vt 0.9999 0.9999
vt 0.0001 0.9999
vt 0.0001 0.0001
vt 0.9999 0.0001
vt 0.9999 0.9999
vt 0.0001 0.9999
vt 0.0001 0.0001
vt 0.9999 0.0001
vt 0.9999 0.9999
vt 0.0001 0.9999
vt 0.0001 0.0001
vt 0.9999 0.0001
vt 0.9999 0.9999
vt 0.0001 0.9999
vt 0.0001 0.0001
vt 0.9999 0.0001
vt 0.9999 0.9999
vt 0.0001 0.9999
vt 0.0001 0.0001
vt 0.9999 0.0001
vt 0.9999 0.9999
vt 0.0001 0.9999
vt 0.0001 0.0001
vt 0.9999 0.0001
vt 0.9999 0.9999
vt 0.0001 0.9999
vt 0.0001 0.0001
vt 0.9999 0.0001
vt 0.9999 0.9999
vt 0.0001 0.9999
vt 0.0001 0.0001
vt 0.9999 0.0001
vt 0.9999 0.9999
vt 0.0001 0.9999
vt 0.0001 0.0001
vt 0.9999 0.0001
vt 0.9999 0.9999
vt 0.0001 0.9999
vt 0.0001 0.0001
vt 0.9999 0.0001
vt 0.9999 0.9999
vt 0.0001 0.9999
vt 0.0001 0.0001
vt 0.9999 0.0001
vt 0.9999 0.9999
vt 0.0001 0.9999
vt 0.0001 0.0001
vt 0.9999 0.0001
vt 0.9999 0.9999
vt 0.0001 0.9999
vt 0.0001 0.0001
vt 0.9999 0.0001
vt 0.9999 0.9999
vt 0.0001 0.9999
vt 0.0001 0.0001
vt 0.9999 0.0001
vt 0.9999 0.9999
vt 0.0001 0.9999
vt 0.0001 0.0001
vt 0.9999 0.0001
vt 0.9999 0.9999
vt 0.0001 0.9999
vt 0.0001 0.0001
vt 0.9999 0.0001
vt 0.9999 0.9999
vt 0.0001 0.9999
vt 0.0001 0.0001
vt 0.9999 0.0001
vt 0.9999 0.9999
vt 0.0001 0.9999
vt 0.0001 0.0001
vt 0.9999 0.0001
vt 0.9999 0.9999
vt 0.0001 0.9999
vt 0.0001 0.0001
vt 0.9999 0.0001
vt 0.9999 0.9999
vt 0.0001 0.9999
vt 0.0001 0.0001
vt 0.9999 0.0001
vt 0.9999 0.9999
vt 0.0001 0.9999
vt 0.0001 0.0001
vt 0.9999 0.0001
vt 0.9999 0.9999
vt 0.0001 0.9999
vt 0.0001 0.0001
vt 0.9999 0.0001
vt 0.9999 0.9999
vt 0.0001 0.9999
vt 0.0001 0.0001
vt 0.9999 0.0001
vt 0.9999 0.9999
vt 0.0001 0.9999
vt 0.0001 0.0001
vt 0.9999 0.0001
vt 0.9999 0.9999
vt 0.0001 0.9999
vt 0.0001 0.0001
vt 0.9999 0.0001
vt 0.9999 0.9999
vt 0.0001 0.9999
vt 0.0001 0.0001
vt 0.9999 0.0001
vt 0.9999 0.9999
vt 0.0001 0.9999
vt 0.0001 0.0001
vt 0.9999 0.0001
vt 0.9999 0.9999
vt 0.0001 0.9999
vt 0.0001 0.0001
vt 0.9999 0.0001
vt 0.9999 0.9999
vt 0.0001 0.9999
vt 0.0001 0.0001
vt 0.9999 0.0001
vt 0.9999 0.9999
vt 0.0001 0.9999
vt 0.0001 0.0001
vt 0.9999 0.0001
vt 0.9999 0.9999
vt 0.0001 0.9999
vt 0.0001 0.0001
vt 0.9999 0.0001
vt 0.9999 0.9999
vt 0.0001 0.9999
vt 0.0001 0.0001
vt 0.9999 0.0001
vt 0.9999 0.9999
vt 0.0001 0.9999
vt 0.0001 0.0001
vt 0.9999 0.0001
vt 0.9999 0.9999
vt 0.0001 0.9999
vt 0.0001 0.0001
vt 0.9999 0.0001
vt 0.9999 0.9999
vt 0.0001 0.9999
vt 0.0001 0.0001
vt 0.9999 0.0001
vt 0.9999 0.9999
vt 0.0001 0.9999
vt 0.0001 0.0001
vt 0.9999 0.0001
vt 0.9999 0.9999
vt 0.0001 0.9999
vt 0.0001 0.0001
vt 0.9999 0.0001
vt 0.9999 0.9999
vt 0.0001 0.9999
vt 0.5000 0.1835
vt 0.6098 0.1846
vt 0.6091 0.5065
vt 0.4998 0.5049
vt 0.2802 0.1874
vt 0.3901 0.1844
vt 0.3904 0.5063
vt 0.2811 0.5108
vt 0.7197 0.1877
vt 0.8303 0.1927
vt 0.8303 0.5189
vt 0.7184 0.5112
vt 0.1701 0.1923
vt 0.1702 0.5183
vt 0.7176 1.7861
vt 0.6087 1.7864
vt 0.4997 1.7865
vt 0.3907 1.7864
vt 0.2819 1.7861
vt 0.1702 1.7857
vt 0.8302 1.7857
vt 0.1700 -0.4596
vt 0.2784 -0.4594
vt 0.2793 -0.1360
vt 0.1701 -0.1337
vt 0.3894 -0.4593
vt 0.5004 -0.4592
vt 0.5002 -0.1378
vt 0.3897 -0.1374
vt 0.6114 -0.4592
vt 0.7223 -0.4594
vt 0.7210 -0.1359
vt 0.6106 -0.1373
vt 0.8304 -0.4596
vt 0.8303 -0.1335
vt 0.5006 -0.7805
vt 0.6121 -0.7811
vt 0.2776 -0.7828
vt 0.3890 -0.7811
vt 0.7236 -0.7829
vt 0.8304 -0.7858
vt 0.1700 -0.7856
vn 0.9851 0.1721 -0.0038
vn -0.9851 0.1721 0.0038
vn -0.0038 0.1721 -0.9851
vn 0.0038 0.1721 0.9851
vn 0.3195 0.8137 0.4856
vn -0.3195 0.8137 -0.4856
vn 0.5337 0.8137 -0.2303
vn -0.5337 0.8137 0.2303
vn -0.0707 0.8137 0.5769
vn 0.0707 0.8137 -0.5769
vn 0.5559 0.8137 0.1699
vn -0.5559 0.8137 -0.1699
vn 0.5790 0.8137 0.0507
vn -0.5790 0.8137 -0.0507
vn 0.1505 0.8137 -0.5614
vn -0.1505 0.8137 0.5614
vn 0.4086 0.8137 0.4134
vn -0.4086 0.8137 -0.4134
vn 0.4781 0.8137 -0.3306
vn -0.4781 0.8137 0.3306
vn 0.5060 0.8137 -0.2860
vn -0.5060 0.8137 0.2860
vn -0.1938 0.8137 -0.5480
vn 0.1938 0.8137 0.5480
vn 0.5708 0.8137 0.1095
vn -0.5708 0.8137 -0.1095
vn 0.2069 0.8137 -0.5432
vn -0.2069 0.8137 0.5432
vn 0.5229 0.8137 -0.2539
vn -0.5229 0.8137 0.2539
vn -0.1592 0.8137 -0.5590
vn 0.1592 0.8137 0.5590
vn 0.5629 0.8137 0.1449
vn -0.5629 0.8137 -0.1449
vn 0.2404 0.8137 -0.5292
vn -0.2404 0.8137 0.5292
vn 0.5812 0.8137 -0.0030
vn -0.5812 0.8137 0.0030
vn 0.0980 0.8137 -0.5729
vn -0.0980 0.8137 0.5729
vn 0.4450 0.8137 0.3739
vn -0.4450 0.8137 -0.3739
vn 0.4455 0.8137 -0.3733
vn -0.4455 0.8137 0.3733
vn 0.5107 0.8137 0.2775
vn -0.5107 0.8137 -0.2775
vn 0.3620 0.8137 -0.4547
vn -0.3620 0.8137 0.4547
vn 0.2097 0.8137 0.5421
vn -0.2097 0.8137 -0.5421
vn 0.5703 0.8137 -0.1123
vn -0.5703 0.8137 0.1123
vn 0.4474 0.8137 0.3710
vn -0.4474 0.8137 -0.3710
vn 0.4431 0.8137 -0.3762
vn -0.4431 0.8137 0.3762
vn 0.1009 0.8137 0.5724
vn -0.1009 0.8137 -0.5724
vn 0.5812 0.8137 0.0000
vn -0.5812 0.8137 0.0000
vn 0.0429 0.2144 0.9758
vn 0.9980 0.0467 -0.0423
vn 0.6997 -0.1165 0.7049
vn 0.7088 -0.0230 -0.7051
vn 0.8594 0.0335 0.5101
vn 0.8643 0.0543 -0.5001
vn 0.8658 0.0162 -0.5000
vn 0.8658 0.0162 0.5000
vn -0.8658 -0.0371 0.4989
vn -0.0123 -0.0125 0.9998
vn -0.0003 0.0153 0.9999
vn -0.8660 0.0145 0.4998
vn -0.0129 0.0266 -0.9995
vn -0.8715 -0.0189 -0.4900
vn -0.8660 0.0145 -0.4998
vn -0.0003 0.0153 -0.9999
vn 0.0000 0.0227 -0.9997
vn 0.8658 0.0227 -0.4999
vn 0.8658 0.0227 0.4999
vn 0.0000 0.0227 0.9997
vn -0.8658 0.0227 0.4999
vn -0.8658 0.0227 -0.4999
vn -0.8750 0.0417 -0.4822
vn -0.8630 0.0585 0.5017
vn -0.8657 0.0245 0.5000
vn -0.8512 0.0115 -0.5247
vn -0.0168 0.0348 0.9992
vn 0.8553 -0.0102 0.5180
vn 0.8794 0.0093 0.4760
vn 0.0289 0.0227 0.9993
vn 0.8671 -0.0318 -0.4970
vn -0.0179 -0.0036 -0.9998
vn 0.0276 -0.0009 -0.9996
vn 0.8661 -0.0014 -0.4999
vn 0.8702 0.0149 0.4925
vn 0.8633 0.0381 -0.5033
vn -0.8681 -0.0091 0.4963
vn 0.0044 -0.0089 0.9999
vn 0.0043 0.0379 -0.9993
vn -0.8616 0.0144 -0.5073
usemtl Branch
s off
f 1/1/1 2/2/1 4/3/1 3/4/1
f 5/5/1 6/6/1 8/7/1 7/8/1
f 9/9/1 10/10/1 12/11/1 11/12/1
f 13/13/2 14/14/2 16/15/2 15/16/2
f 17/17/2 18/18/2 20/19/2 19/20/2
f 21/21/2 22/22/2 24/23/2 23/24/2
f 25/25/3 26/26/3 28/27/3 27/28/3
f 29/29/3 30/30/3 32/31/3 31/32/3
f 33/33/3 34/34/3 36/35/3 35/36/3
f 37/37/4 38/38/4 40/39/4 39/40/4
f 41/41/4 42/42/4 44/43/4 43/44/4
f 45/45/4 46/46/4 48/47/4 47/48/4
f 49/49/5 50/50/5 52/51/5 51/52/5
f 53/53/6 54/54/6 56/55/6 55/56/6
f 57/57/7 58/58/7 60/59/7 59/60/7
f 61/61/8 62/62/8 64/63/8 63/64/8
f 65/65/9 66/66/9 68/67/9 67/68/9
f 69/69/10 70/70/10 72/71/10 71/72/10
f 73/73/11 74/74/11 76/75/11 75/76/11
f 77/77/12 78/78/12 80/79/12 79/80/12
f 81/81/13 82/82/13 84/83/13 83/84/13
f 85/85/14 86/86/14 88/87/14 87/88/14
f 89/89/15 90/90/15 92/91/15 91/92/15
f 93/93/16 94/94/16 96/95/16 95/96/16
f 97/97/17 98/98/17 100/99/17 99/100/17
f 101/101/18 102/102/18 104/103/18 103/104/18
f 105/105/19 106/106/19 108/107/19 107/108/19
f 109/109/20 110/110/20 112/111/20 111/112/20
f 113/113/21 114/114/21 116/115/21 115/116/21
f 117/117/22 118/118/22 120/119/22 119/120/22
f 121/121/23 122/122/23 124/123/23 123/124/23
f 125/125/24 126/126/24 128/127/24 127/128/24
f 129/129/25 130/130/25 132/131/25 131/132/25
f 133/133/26 134/134/26 136/135/26 135/136/26
f 137/137/27 138/138/27 140/139/27 139/140/27
f 141/141/28 142/142/28 144/143/28 143/144/28
f 145/145/29 146/146/29 148/147/29 147/148/29
f 149/149/30 150/150/30 152/151/30 151/152/30
f 153/153/31 154/154/31 156/155/31 155/156/31
f 157/157/32 158/158/32 160/159/32 159/160/32
f 161/161/33 162/162/33 164/163/33 163/164/33
f 165/165/34 166/166/34 168/167/34 167/168/34
f 169/169/35 170/170/35 172/171/35 171/172/35
f 173/173/36 174/174/36 176/175/36 175/176/36
f 177/177/37 178/178/37 180/179/37 179/180/37
f 181/181/38 182/182/38 184/183/38 183/184/38
f 185/185/39 186/186/39 188/187/39 187/188/39
f 189/189/40 190/190/40 192/191/40 191/192/40
f 193/193/41 194/194/41 196/195/41 195/196/41
f 197/197/42 198/198/42 200/199/42 199/200/42
f 201/201/43 202/202/43 204/203/43 203/204/43
f 205/205/44 206/206/44 208/207/44 207/208/44
f 209/209/45 210/210/45 212/211/45 211/212/45
f 213/213/46 214/214/46 216/215/46 215/216/46
f 217/217/47 218/218/47 220/219/47 219/220/47
f 221/221/48 222/222/48 224/223/48 223/224/48
f 225/225/49 226/226/49 228/227/49 227/228/49
f 229/229/50 230/230/50 232/231/50 231/232/50
f 233/233/51 234/234/51 236/235/51 235/236/51
f 237/237/52 238/238/52 240/239/52 239/240/52
f 241/241/53 242/242/53 244/243/53 243/244/53
f 245/245/54 246/246/54 248/247/54 247/248/54
f 249/249/55 250/250/55 252/251/55 251/252/55
f 253/253/56 254/254/56 256/255/56 255/256/56
f 257/257/57 258/258/57 260/259/57 259/260/57
f 261/261/58 262/262/58 264/263/58 263/264/58
f 265/265/59 266/266/59 268/267/59 267/268/59
f 269/269/60 270/270/60 272/271/60 271/272/60
f 291/273/61 292/274/61 294/275/61 293/276/61
f 295/277/62 296/278/62 298/279/62 297/280/62
f 299/281/63 300/282/63 302/283/63 301/284/63
f 303/285/64 304/286/64 306/287/64 305/288/64
usemtl Bark
s 1
f 316/289/65 313/290/66 284/291/67 283/292/68
f 317/293/69 314/294/70 282/295/71 281/296/72
f 318/297/73 315/298/74 280/299/75 279/300/76
f 313/290/66 318/297/73 279/300/76 284/291/67
f 314/294/70 316/289/65 283/292/68 282/295/71
f 315/301/74 317/293/69 281/296/72 280/302/75
f 284/291/67 279/300/76 285/303/77 290/304/78
f 282/295/71 283/292/68 289/305/79 288/306/80
f 280/302/75 281/296/72 287/307/81 286/308/82
f 283/292/68 284/291/67 290/304/78 289/305/79
f 281/296/72 282/295/71 288/306/80 287/307/81
f 279/300/76 280/299/75 286/309/82 285/303/77
f 324/310/83 320/311/84 309/312/85 312/313/86
f 323/314/87 319/315/88 307/316/89 310/317/90
f 322/318/91 321/319/92 311/320/93 308/321/94
f 321/319/92 324/322/83 312/323/86 311/320/93
f 320/311/84 323/314/87 310/317/90 309/312/85
f 319/315/88 322/318/91 308/321/94 307/316/89
f 312/313/86 309/312/85 317/293/69 315/301/74
f 310/317/90 307/316/89 316/289/65 314/294/70
f 308/321/94 311/320/93 318/297/73 313/290/66
f 311/320/93 312/323/86 315/298/74 318/297/73
f 309/312/85 310/317/90 314/294/70 317/293/69
f 307/316/89 308/321/94 313/290/66 316/289/65
f 277/324/95 278/325/96 322/318/91 319/315/88
f 275/326/97 276/327/98 323/314/87 320/311/84
f 273/328/99 274/329/100 324/322/83 321/319/92
f 278/325/96 273/328/99 321/319/92 322/318/91
f 276/327/98 277/324/95 319/315/88 323/314/87
f 274/330/100 275/326/97 320/311/84 324/310/83
l 328 325
l 329 326
l 330 327
l 327 328
l 325 329
l 326 330
